<svg xmlns="http://www.w3.org/2000/svg" xmlns:xlink="http://www.w3.org/1999/xlink" contentStyleType="text/css" data-diagram-type="DESCRIPTION" height="681px" preserveAspectRatio="none" style="width:815px;height:681px;background:#FFFFFF;" version="1.1" viewBox="0 0 815 681" width="815px" zoomAndPan="magnify"><defs/><g><!--cluster Tenant Workspace--><g class="cluster" data-entity="Tenant Workspace" data-source-line="4" data-uid="ent0002" id="cluster_Tenant Workspace"><path d="M258.5,257.02 L406.3633,257.02 A3.75,3.75 0 0 1 408.8633,259.52 L415.8633,279.3169 L597.5,279.3169 A2.5,2.5 0 0 1 600,281.8169 L600,672.48 A2.5,2.5 0 0 1 597.5,674.98 L258.5,674.98 A2.5,2.5 0 0 1 256,672.48 L256,259.52 A2.5,2.5 0 0 1 258.5,257.02" fill="none" style="stroke:#000000;stroke-width:1.5;"/><line style="stroke:#000000;stroke-width:1.5;" x1="256" x2="415.8633" y1="279.3169" y2="279.3169"/><text fill="#000000" font-family="sans-serif" font-size="14" font-weight="bold" lengthAdjust="spacing" textLength="146.8633" x="260" y="272.0151">Tenant Workspace</text></g><!--cluster TAPI--><g class="cluster" data-entity="TAPI" data-source-line="6" data-uid="ent0004" id="cluster_TAPI"><rect fill="none" height="171.02" rx="2.5" ry="2.5" style="stroke:#181818;stroke-width:1;" width="154" x="296" y="463.96"/><rect fill="none" height="10" style="stroke:#181818;stroke-width:1;" width="15" x="430" y="468.96"/><rect fill="none" height="2" style="stroke:#181818;stroke-width:1;" width="4" x="428" y="470.96"/><rect fill="none" height="2" style="stroke:#181818;stroke-width:1;" width="4" x="428" y="474.96"/><text fill="#000000" font-family="sans-serif" font-size="14" font-weight="bold" lengthAdjust="spacing" textLength="86.2969" x="329.8516" y="489.9551">Tenant API</text></g><!--cluster Root Workspace--><g class="cluster" data-entity="Root Workspace" data-source-line="17" data-uid="ent0010" id="cluster_Root Workspace"><path d="M8.5,6 L137.9541,6 A3.75,3.75 0 0 1 140.4541,8.5 L147.4541,28.2969 L221.5,28.2969 A2.5,2.5 0 0 1 224,30.7969 L224,404.46 A2.5,2.5 0 0 1 221.5,406.96 L8.5,406.96 A2.5,2.5 0 0 1 6,404.46 L6,8.5 A2.5,2.5 0 0 1 8.5,6" fill="none" style="stroke:#000000;stroke-width:1.5;"/><line style="stroke:#000000;stroke-width:1.5;" x1="6" x2="147.4541" y1="28.2969" y2="28.2969"/><text fill="#000000" font-family="sans-serif" font-size="14" font-weight="bold" lengthAdjust="spacing" textLength="128.4541" x="10" y="20.9951">Root Workspace</text></g><!--cluster DAPI--><g class="cluster" data-entity="DAPI" data-source-line="19" data-uid="ent0012" id="cluster_DAPI"><rect fill="none" height="216.66" rx="2.5" ry="2.5" style="stroke:#181818;stroke-width:1;" width="154" x="38" y="158.3"/><rect fill="none" height="10" style="stroke:#181818;stroke-width:1;" width="15" x="172" y="163.3"/><rect fill="none" height="2" style="stroke:#181818;stroke-width:1;" width="4" x="170" y="165.3"/><rect fill="none" height="2" style="stroke:#181818;stroke-width:1;" width="4" x="170" y="169.3"/><text fill="#000000" font-family="sans-serif" font-size="14" font-weight="bold" lengthAdjust="spacing" textLength="116.5596" x="56.7202" y="184.2951">Dashboard API</text></g><!--entity FE--><g class="entity" data-entity="FE" data-source-line="5" data-uid="ent0003" id="entity_FE"><rect fill="#F1F1F1" height="46.2969" rx="2.5" ry="2.5" style="stroke:#181818;stroke-width:0.5;" width="103.1094" x="390.45" y="300.02"/><rect fill="#F1F1F1" height="10" style="stroke:#181818;stroke-width:0.5;" width="15" x="473.5594" y="305.02"/><rect fill="#F1F1F1" height="2" style="stroke:#181818;stroke-width:0.5;" width="4" x="471.5594" y="307.02"/><rect fill="#F1F1F1" height="2" style="stroke:#181818;stroke-width:0.5;" width="4" x="471.5594" y="311.02"/><text fill="#000000" font-family="sans-serif" font-size="14" lengthAdjust="spacing" textLength="63.1094" x="405.45" y="333.0151">Frontend</text></g><!--entity TDB--><g class="entity" data-entity="TDB" data-source-line="9" data-uid="ent0006" id="entity_TDB"><path d="M474.09,578.68 C474.09,568.68 520.9972,568.68 520.9972,568.68 C520.9972,568.68 567.9045,568.68 567.9045,578.68 L567.9045,603.9769 C567.9045,613.9769 520.9972,613.9769 520.9972,613.9769 C520.9972,613.9769 474.09,613.9769 474.09,603.9769 L474.09,578.68" fill="#F1F1F1" style="stroke:#181818;stroke-width:0.5;"/><path d="M474.09,578.68 C474.09,588.68 520.9972,588.68 520.9972,588.68 C520.9972,588.68 567.9045,588.68 567.9045,578.68" fill="none" style="stroke:#181818;stroke-width:0.5;"/><text fill="#000000" font-family="sans-serif" font-size="14" lengthAdjust="spacing" textLength="73.8145" x="484.09" y="605.6751">Tenant DB</text></g><!--entity CFG--><g class="entity" data-entity="CFG" data-source-line="7" data-uid="ent0005" id="entity_CFG"><rect fill="#F1F1F1" height="39.2969" rx="2.5" ry="2.5" style="stroke:#181818;stroke-width:0.5;" width="105.9131" x="320.04" y="571.68"/><polygon fill="#F1F1F1" points="408.9531,576.68,408.9531,590.68,420.9531,590.68,420.9531,582.68,414.9531,576.68,408.9531,576.68" style="stroke:#181818;stroke-width:0.5;"/><line style="stroke:#181818;stroke-width:0.5;" x1="414.9531" x2="414.9531" y1="576.68" y2="582.68"/><line style="stroke:#181818;stroke-width:0.5;" x1="420.9531" x2="414.9531" y1="582.68" y2="582.68"/><text fill="#000000" font-family="sans-serif" font-size="14" lengthAdjust="spacing" textLength="75.9131" x="330.04" y="597.6751">config.json</text></g><!--entity DF--><g class="entity" data-entity="DF" data-source-line="18" data-uid="ent0011" id="entity_DF"><rect fill="#F1F1F1" height="46.2969" rx="2.5" ry="2.5" style="stroke:#181818;stroke-width:0.5;" width="183.7598" x="24.12" y="41"/><rect fill="#F1F1F1" height="10" style="stroke:#181818;stroke-width:0.5;" width="15" x="187.8798" y="46"/><rect fill="#F1F1F1" height="2" style="stroke:#181818;stroke-width:0.5;" width="4" x="185.8798" y="48"/><rect fill="#F1F1F1" height="2" style="stroke:#181818;stroke-width:0.5;" width="4" x="185.8798" y="52"/><text fill="#000000" font-family="sans-serif" font-size="14" lengthAdjust="spacing" textLength="143.7598" x="39.12" y="73.9951">Dashboard Frontend</text></g><!--entity TMP--><g class="entity" data-entity="TMP" data-source-line="20" data-uid="ent0013" id="entity_TMP"><rect fill="#F1F1F1" height="55.5938" rx="2.5" ry="2.5" style="stroke:#181818;stroke-width:0.5;" width="105.9131" x="62.04" y="295.37"/><polygon fill="#F1F1F1" points="150.9531,300.37,150.9531,314.37,162.9531,314.37,162.9531,306.37,156.9531,300.37,150.9531,300.37" style="stroke:#181818;stroke-width:0.5;"/><line style="stroke:#181818;stroke-width:0.5;" x1="156.9531" x2="156.9531" y1="300.37" y2="306.37"/><line style="stroke:#181818;stroke-width:0.5;" x1="162.9531" x2="156.9531" y1="306.37" y2="306.37"/><text fill="#000000" font-family="sans-serif" font-size="14" lengthAdjust="spacing" textLength="39.6895" x="72.04" y="321.3651">Temp</text><text fill="#000000" font-family="sans-serif" font-size="14" lengthAdjust="spacing" textLength="75.9131" x="72.04" y="337.662">config.json</text></g><!--link FE to TAPI--><g class="link" data-entity-1="FE" data-entity-2="TAPI" data-source-line="11" data-uid="lnk7" id="link_FE_TAPI"><path d="M442,346.57 C442,368.895 442,404.0675 442,434.0325 C442,441.5238 442,448.6895 442,455.2477 C442,456.8873 442,458.4889 442,460.0481 C442,460.8277 442,461.5967 442,462.3545 C442,462.7334 442,457.1096 442,457.4829" fill="none" id="FE-to-TAPI" style="stroke:#181818;stroke-width:1;stroke-dasharray:7,7;"/><polygon fill="#181818" points="442,463.4829,446,454.4829,442,458.4829,438,454.4829,442,463.4829" style="stroke:#181818;stroke-width:1;"/><text fill="#000000" font-family="sans-serif" font-size="13" lengthAdjust="spacing" textLength="33.4395" x="443" y="436.0269">REST</text></g><!--link TAPI to CFG--><g class="link" data-entity-1="TAPI" data-entity-2="CFG" data-source-line="12" data-uid="lnk8" id="link_TAPI_CFG"><path d="M441.27,491.73 C431.59,492.33 327.89,499.28 310,521.68 C295.97,539.26 310.6968,554.7451 331.7068,568.1951" fill="none" id="TAPI-to-CFG" style="stroke:#181818;stroke-width:1;stroke-dasharray:7,7;"/><polygon fill="#181818" points="336.76,571.43,331.3368,563.2088,332.549,568.7342,327.0235,569.9464,336.76,571.43" style="stroke:#181818;stroke-width:1;"/><text fill="#000000" font-family="sans-serif" font-size="13" lengthAdjust="spacing" textLength="69.3989" x="311" y="534.7469">read «file»</text></g><!--link TAPI to TDB--><g class="link" data-entity-1="TAPI" data-entity-2="TDB" data-source-line="13" data-uid="lnk9" id="link_TAPI_TDB"><path d="M450.1694,501.887 C450.2347,501.9684 450.3002,502.0503 450.3661,502.1326 C450.4978,502.2971 450.6308,502.4632 450.765,502.6308 C451.0335,502.9661 451.3069,503.3076 451.5851,503.655 C452.1415,504.3499 452.7171,505.0687 453.3103,505.8096 C454.4968,507.2914 455.7542,508.8617 457.0712,510.5065 C459.7053,513.7961 462.5781,517.3838 465.6,521.1575 C477.6875,536.2525 488.4094,549.6418 499.5294,563.5268" fill="none" id="TAPI-to-TDB" style="stroke:#181818;stroke-width:1;stroke-dasharray:7,7;"/><polygon fill="#181818" points="503.28,568.21,500.7762,558.6847,500.1545,564.3073,494.5319,563.6856,503.28,568.21" style="stroke:#181818;stroke-width:1;"/><text fill="#000000" font-family="sans-serif" font-size="13" lengthAdjust="spacing" textLength="25.7271" x="480" y="534.7469">SQL</text></g><!--link DF to DAPI--><g class="link" data-entity-1="DF" data-entity-2="DAPI" data-source-line="23" data-uid="lnk14" id="link_DF_DAPI"><path d="M125.59,87.63 C132.865,104.67 143.01,128.44 151.4375,148.1875 C152.4909,150.6559 153.5175,153.0615 154.5083,155.3833 C154.756,155.9637 155.0015,156.5389 155.2446,157.1085 C155.3661,157.3933 153.1321,152.1582 153.2524,152.4402" fill="none" id="DF-to-DAPI" style="stroke:#181818;stroke-width:1;stroke-dasharray:7,7;"/><polygon fill="#181818" points="155.6074,157.9587,155.7539,148.111,153.6449,153.36,148.3959,151.251,155.6074,157.9587" style="stroke:#181818;stroke-width:1;"/><text fill="#000000" font-family="sans-serif" font-size="13" lengthAdjust="spacing" textLength="33.4395" x="146" y="130.3669">REST</text></g><!--link DAPI to TMP--><g class="link" data-entity-1="DAPI" data-entity-2="TMP" data-source-line="24" data-uid="lnk15" id="link_DAPI_TMP"><path d="M166.85,186.41 C164.7,192.04 141.951,251.615 127.451,289.575" fill="none" id="DAPI-to-TMP" style="stroke:#181818;stroke-width:1;stroke-dasharray:7,7;"/><polygon fill="#181818" points="125.31,295.18,132.2582,288.1998,127.0942,290.5092,124.7848,285.3452,125.31,295.18" style="stroke:#181818;stroke-width:1;"/><text fill="#000000" font-family="sans-serif" font-size="13" lengthAdjust="spacing" textLength="72.522" x="156" y="229.0869">write «file»</text></g><!--link DAPI to TAPI--><g class="link" data-entity-1="DAPI" data-entity-2="TAPI" data-source-line="28" data-uid="lnk16" id="link_DAPI_TAPI"><path d="M192.8206,186.7121 C206.5025,187.0959 224.9687,187.6373 246.6175,188.3309 C289.915,189.7181 345.9425,191.7137 401.885,194.2725 C513.77,199.39 625.315,206.76 634,216.02 C648.11,231.06 742.69,138.58 608,414.96 C590.53,450.81 550.045,469.6275 513.4313,479.4938 C495.1244,484.4269 477.7853,487.1222 464.7748,488.5898 C461.5222,488.9568 458.5401,489.2469 455.8811,489.4762 C454.5516,489.5908 453.3028,489.6902 452.1414,489.7763 C451.5607,489.8194 451.0018,489.8591 450.4656,489.8958 C450.3315,489.905 456.1855,489.5129 456.0543,489.5217" fill="none" id="DAPI-to-TAPI" style="stroke:#181818;stroke-width:1;stroke-dasharray:7,7;"/><polygon fill="#181818" points="450.0677,489.9227,459.3149,493.3123,455.0565,489.5886,458.7802,485.3302,450.0677,489.9227" style="stroke:#181818;stroke-width:1;"/><text fill="#000000" font-family="sans-serif" font-size="13" lengthAdjust="spacing" textLength="49.3467" x="718.584" y="320.2369">«REST»</text><text fill="#000000" font-family="sans-serif" font-size="13" lengthAdjust="spacing" textLength="128.5146" x="679" y="335.3697">fetch current config</text></g><!--link DAPI to Tenant Workspace--><g class="link" data-entity-1="DAPI" data-entity-2="Tenant Workspace" data-source-line="29" data-uid="lnk17" id="link_DAPI_Tenant Workspace"><path d="M193.0995,189.2409 C193.9173,189.3422 194.7519,189.4456 195.6028,189.551 C197.3046,189.7618 199.0718,189.9808 200.9015,190.2076 C204.5609,190.6613 208.4701,191.1463 212.6058,191.6599 C220.8772,192.6871 230.0546,193.8286 239.9511,195.0623 C279.5372,199.9972 330.6294,206.4069 381.2688,212.8738 C482.5475,225.8075 582.015,238.97 584,241.02 C587.0513,244.1738 589.4808,247.7536 591.3944,251.6101 C591.8728,252.5742 592.319,253.5556 592.7346,254.552 C592.9424,255.0502 593.1425,255.5521 593.3352,256.0575 C593.4316,256.3102 591.4725,273.223 591.5652,273.4773" fill="none" id="DAPI-to-Tenant Workspace" style="stroke:#181818;stroke-width:1;stroke-dasharray:7,7;"/><polygon fill="#181818" points="593.6187,279.115,594.2968,269.2895,591.9074,274.417,586.78,272.0276,593.6187,279.115" style="stroke:#181818;stroke-width:1;"/><text fill="#000000" font-family="sans-serif" font-size="13" lengthAdjust="spacing" textLength="94.1294" x="531" y="229.0869">build &amp; deploy</text></g><!--SRC=[TPB1JeD048RlFCMa1pt9mQE99YqBncWBmYOzM0zJM5eix99b6zEOFf6Fq5kVp84gbBPk0jdCF_CF_nUgLIPBr5X0h8fIII5DP3QvW7MHtrhMDTot1xWx6KuuJFtmEGg6ZdkaMIN6Arm8670XKHgOAhsgg2W6y6K1l7bQIIDayWvOWUTIgTtNpWo3fq4jSxeqK_L1RR8KO-gAbKopXVrHATcqETuZzMpfIT3W7AjkEniTZDZ88jbpoSUs7mx6Tx3_3js8xtSaDPLQ8ZCWIGjCI4-pNFHrie9cD7fz8MLxWYRq_SjWZj64Ifs3OLWjvmfr0Zr4pEiZwjh-AB7BbBWeofayPSN7GSEANipxfS7EQB0sxJYeqtxgp8WEnsbe9_IZwEQVr9rNVyrCfiB4IuZNMjV93b_QjL_uWUhX-JhB4xY2H9IvskntFm00]--></g></svg>