<svg xmlns="http://www.w3.org/2000/svg" xmlns:xlink="http://www.w3.org/1999/xlink" contentStyleType="text/css" data-diagram-type="DESCRIPTION" height="681px" preserveAspectRatio="none" style="width:787px;height:681px;background:#FFFFFF;" version="1.1" viewBox="0 0 787 681" width="787px" zoomAndPan="magnify"><defs/><g><!--cluster Tenant Workspace--><g class="cluster" data-entity="Tenant Workspace" data-source-line="4" data-uid="ent0002" id="cluster_Tenant Workspace"><path d="M376.65,257.02 L524.5133,257.02 A3.75,3.75 0 0 1 527.0133,259.52 L534.0133,279.3169 L715.65,279.3169 A2.5,2.5 0 0 1 718.15,281.8169 L718.15,672.48 A2.5,2.5 0 0 1 715.65,674.98 L376.65,674.98 A2.5,2.5 0 0 1 374.15,672.48 L374.15,259.52 A2.5,2.5 0 0 1 376.65,257.02" fill="none" style="stroke:#000000;stroke-width:1.5;"/><line style="stroke:#000000;stroke-width:1.5;" x1="374.15" x2="534.0133" y1="279.3169" y2="279.3169"/><text fill="#000000" font-family="sans-serif" font-size="14" font-weight="bold" lengthAdjust="spacing" textLength="146.8633" x="378.15" y="272.0151">Tenant Workspace</text></g><!--cluster TAPI--><g class="cluster" data-entity="TAPI" data-source-line="6" data-uid="ent0004" id="cluster_TAPI"><rect fill="none" height="171.02" rx="2.5" ry="2.5" style="stroke:#181818;stroke-width:1;" width="154" x="414.15" y="463.96"/><rect fill="none" height="10" style="stroke:#181818;stroke-width:1;" width="15" x="548.15" y="468.96"/><rect fill="none" height="2" style="stroke:#181818;stroke-width:1;" width="4" x="546.15" y="470.96"/><rect fill="none" height="2" style="stroke:#181818;stroke-width:1;" width="4" x="546.15" y="474.96"/><text fill="#000000" font-family="sans-serif" font-size="14" font-weight="bold" lengthAdjust="spacing" textLength="86.2969" x="448.0016" y="489.9551">Tenant API</text></g><!--cluster Root Workspace--><g class="cluster" data-entity="Root Workspace" data-source-line="17" data-uid="ent0010" id="cluster_Root Workspace"><path d="M8.65,6 L138.1041,6 A3.75,3.75 0 0 1 140.6041,8.5 L147.6041,28.2969 L339.65,28.2969 A2.5,2.5 0 0 1 342.15,30.7969 L342.15,404.46 A2.5,2.5 0 0 1 339.65,406.96 L8.65,406.96 A2.5,2.5 0 0 1 6.15,404.46 L6.15,8.5 A2.5,2.5 0 0 1 8.65,6" fill="none" style="stroke:#000000;stroke-width:1.5;"/><line style="stroke:#000000;stroke-width:1.5;" x1="6.15" x2="147.6041" y1="28.2969" y2="28.2969"/><text fill="#000000" font-family="sans-serif" font-size="14" font-weight="bold" lengthAdjust="spacing" textLength="128.4541" x="10.15" y="20.9951">Root Workspace</text></g><!--cluster DAPI--><g class="cluster" data-entity="DAPI" data-source-line="19" data-uid="ent0012" id="cluster_DAPI"><rect fill="none" height="216.66" rx="2.5" ry="2.5" style="stroke:#181818;stroke-width:1;" width="154" x="38.15" y="158.3"/><rect fill="none" height="10" style="stroke:#181818;stroke-width:1;" width="15" x="172.15" y="163.3"/><rect fill="none" height="2" style="stroke:#181818;stroke-width:1;" width="4" x="170.15" y="165.3"/><rect fill="none" height="2" style="stroke:#181818;stroke-width:1;" width="4" x="170.15" y="169.3"/><text fill="#000000" font-family="sans-serif" font-size="14" font-weight="bold" lengthAdjust="spacing" textLength="116.5596" x="56.8702" y="184.2951">Dashboard API</text></g><!--entity FE--><g class="entity" data-entity="FE" data-source-line="5" data-uid="ent0003" id="entity_FE"><rect fill="#F1F1F1" height="46.2969" rx="2.5" ry="2.5" style="stroke:#181818;stroke-width:0.5;" width="103.1094" x="472.6" y="300.02"/><rect fill="#F1F1F1" height="10" style="stroke:#181818;stroke-width:0.5;" width="15" x="555.7094" y="305.02"/><rect fill="#F1F1F1" height="2" style="stroke:#181818;stroke-width:0.5;" width="4" x="553.7094" y="307.02"/><rect fill="#F1F1F1" height="2" style="stroke:#181818;stroke-width:0.5;" width="4" x="553.7094" y="311.02"/><text fill="#000000" font-family="sans-serif" font-size="14" lengthAdjust="spacing" textLength="63.1094" x="487.6" y="333.0151">Frontend</text></g><!--entity TDB--><g class="entity" data-entity="TDB" data-source-line="9" data-uid="ent0006" id="entity_TDB"><path d="M592.24,578.68 C592.24,568.68 639.1472,568.68 639.1472,568.68 C639.1472,568.68 686.0545,568.68 686.0545,578.68 L686.0545,603.9769 C686.0545,613.9769 639.1472,613.9769 639.1472,613.9769 C639.1472,613.9769 592.24,613.9769 592.24,603.9769 L592.24,578.68" fill="#F1F1F1" style="stroke:#181818;stroke-width:0.5;"/><path d="M592.24,578.68 C592.24,588.68 639.1472,588.68 639.1472,588.68 C639.1472,588.68 686.0545,588.68 686.0545,578.68" fill="none" style="stroke:#181818;stroke-width:0.5;"/><text fill="#000000" font-family="sans-serif" font-size="14" lengthAdjust="spacing" textLength="73.8145" x="602.24" y="605.6751">Tenant DB</text></g><!--entity CFG--><g class="entity" data-entity="CFG" data-source-line="7" data-uid="ent0005" id="entity_CFG"><rect fill="#F1F1F1" height="39.2969" rx="2.5" ry="2.5" style="stroke:#181818;stroke-width:0.5;" width="105.9131" x="438.19" y="571.68"/><polygon fill="#F1F1F1" points="527.1031,576.68,527.1031,590.68,539.1031,590.68,539.1031,582.68,533.1031,576.68,527.1031,576.68" style="stroke:#181818;stroke-width:0.5;"/><line style="stroke:#181818;stroke-width:0.5;" x1="533.1031" x2="533.1031" y1="576.68" y2="582.68"/><line style="stroke:#181818;stroke-width:0.5;" x1="539.1031" x2="533.1031" y1="582.68" y2="582.68"/><text fill="#000000" font-family="sans-serif" font-size="14" lengthAdjust="spacing" textLength="75.9131" x="448.19" y="597.6751">config.json</text></g><!--entity DF--><g class="entity" data-entity="DF" data-source-line="18" data-uid="ent0011" id="entity_DF"><rect fill="#F1F1F1" height="46.2969" rx="2.5" ry="2.5" style="stroke:#181818;stroke-width:0.5;" width="183.7598" x="92.27" y="41"/><rect fill="#F1F1F1" height="10" style="stroke:#181818;stroke-width:0.5;" width="15" x="256.0298" y="46"/><rect fill="#F1F1F1" height="2" style="stroke:#181818;stroke-width:0.5;" width="4" x="254.0298" y="48"/><rect fill="#F1F1F1" height="2" style="stroke:#181818;stroke-width:0.5;" width="4" x="254.0298" y="52"/><text fill="#000000" font-family="sans-serif" font-size="14" lengthAdjust="spacing" textLength="143.7598" x="107.27" y="73.9951">Dashboard Frontend</text></g><!--entity REDIS--><g class="entity" data-entity="REDIS" data-source-line="22" data-uid="ent0014" id="entity_REDIS"><path d="M215.78,302.37 C215.78,292.37 271.1501,292.37 271.1501,292.37 C271.1501,292.37 326.5202,292.37 326.5202,302.37 L326.5202,343.9638 C326.5202,353.9638 271.1501,353.9638 271.1501,353.9638 C271.1501,353.9638 215.78,353.9638 215.78,343.9638 L215.78,302.37" fill="#F1F1F1" style="stroke:#181818;stroke-width:0.5;"/><path d="M215.78,302.37 C215.78,312.37 271.1501,312.37 271.1501,312.37 C271.1501,312.37 326.5202,312.37 326.5202,302.37" fill="none" style="stroke:#181818;stroke-width:0.5;"/><text fill="#000000" font-family="sans-serif" font-size="14" lengthAdjust="spacing" textLength="90.7402" x="225.78" y="329.3651">Tenant Store</text><text fill="#000000" font-family="sans-serif" font-size="14" lengthAdjust="spacing" textLength="38.4111" x="225.78" y="345.662">Redis</text></g><!--entity TMP--><g class="entity" data-entity="TMP" data-source-line="20" data-uid="ent0013" id="entity_TMP"><rect fill="#F1F1F1" height="55.5938" rx="2.5" ry="2.5" style="stroke:#181818;stroke-width:0.5;" width="105.9131" x="62.19" y="295.37"/><polygon fill="#F1F1F1" points="151.1031,300.37,151.1031,314.37,163.1031,314.37,163.1031,306.37,157.1031,300.37,151.1031,300.37" style="stroke:#181818;stroke-width:0.5;"/><line style="stroke:#181818;stroke-width:0.5;" x1="157.1031" x2="157.1031" y1="300.37" y2="306.37"/><line style="stroke:#181818;stroke-width:0.5;" x1="163.1031" x2="157.1031" y1="306.37" y2="306.37"/><text fill="#000000" font-family="sans-serif" font-size="14" lengthAdjust="spacing" textLength="39.6895" x="72.19" y="321.3651">Temp</text><text fill="#000000" font-family="sans-serif" font-size="14" lengthAdjust="spacing" textLength="75.9131" x="72.19" y="337.662">config.json</text></g><!--link FE to TAPI--><g class="link" data-entity-1="FE" data-entity-2="TAPI" data-source-line="11" data-uid="lnk7" id="link_FE_TAPI"><path d="M524.15,346.57 C524.15,368.895 524.15,404.0675 524.15,434.0325 C524.15,441.5238 524.15,448.6895 524.15,455.2477 C524.15,456.8873 524.15,458.4889 524.15,460.0481 C524.15,460.8277 524.15,461.5967 524.15,462.3545 C524.15,462.7334 524.15,457.1096 524.15,457.4829" fill="none" id="FE-to-TAPI" style="stroke:#181818;stroke-width:1;stroke-dasharray:7,7;"/><polygon fill="#181818" points="524.15,463.4829,528.15,454.4829,524.15,458.4829,520.15,454.4829,524.15,463.4829" style="stroke:#181818;stroke-width:1;"/><text fill="#000000" font-family="sans-serif" font-size="13" lengthAdjust="spacing" textLength="33.4395" x="525.15" y="436.0269">REST</text></g><!--link TAPI to CFG--><g class="link" data-entity-1="TAPI" data-entity-2="CFG" data-source-line="12" data-uid="lnk8" id="link_TAPI_CFG"><path d="M523.62,491.76 C516.54,492.82 440.77,504.52 428.15,521.68 C415.02,539.54 428.9542,554.6779 449.4242,567.9379" fill="none" id="TAPI-to-CFG" style="stroke:#181818;stroke-width:1;stroke-dasharray:7,7;"/><polygon fill="#181818" points="454.46,571.2,449.081,562.9497,450.2635,568.4816,444.7316,569.6641,454.46,571.2" style="stroke:#181818;stroke-width:1;"/><text fill="#000000" font-family="sans-serif" font-size="13" lengthAdjust="spacing" textLength="69.3989" x="429.15" y="534.7469">read «file»</text></g><!--link TAPI to TDB--><g class="link" data-entity-1="TAPI" data-entity-2="TDB" data-source-line="13" data-uid="lnk9" id="link_TAPI_TDB"><path d="M568.2795,529.5415 C568.4246,529.666 568.5699,529.7906 568.7152,529.9152 C569.878,530.9127 571.0482,531.9166 572.2238,532.9251 C576.9264,536.9591 581.7154,541.0672 586.4605,545.1375 C595.9506,553.2781 600.7106,557.3615 608.8056,564.304" fill="none" id="TAPI-to-TDB" style="stroke:#181818;stroke-width:1;stroke-dasharray:7,7;"/><polygon fill="#181818" points="613.36,568.21,609.1323,559.3147,609.5646,564.955,603.9243,565.3873,613.36,568.21" style="stroke:#181818;stroke-width:1;"/><text fill="#000000" font-family="sans-serif" font-size="13" lengthAdjust="spacing" textLength="25.7271" x="579.15" y="534.7469">SQL</text></g><!--link DF to DAPI--><g class="link" data-entity-1="DF" data-entity-2="DAPI" data-source-line="24" data-uid="lnk15" id="link_DF_DAPI"><path d="M184.15,87.63 C184.15,104.67 184.15,128.44 184.15,148.1875 C184.15,150.6559 184.15,153.0615 184.15,155.3833 C184.15,155.9637 184.15,156.5389 184.15,157.1085 C184.15,157.3933 184.15,151.6767 184.15,151.9587" fill="none" id="DF-to-DAPI" style="stroke:#181818;stroke-width:1;stroke-dasharray:7,7;"/><polygon fill="#181818" points="184.15,157.9587,188.15,148.9587,184.15,152.9587,180.15,148.9587,184.15,157.9587" style="stroke:#181818;stroke-width:1;"/><text fill="#000000" font-family="sans-serif" font-size="13" lengthAdjust="spacing" textLength="33.4395" x="185.15" y="130.3669">REST</text></g><!--link DAPI to TMP--><g class="link" data-entity-1="DAPI" data-entity-2="TMP" data-source-line="25" data-uid="lnk16" id="link_DAPI_TMP"><path d="M37.7776,208.6746 C37.46,208.8458 37.1474,209.0183 36.8399,209.1921 C35.6098,209.8871 34.4611,210.6028 33.4006,211.3396 C31.2795,212.8134 29.5112,214.3719 28.15,216.02 C6,242.84 32.4741,270.1787 63.5541,291.6587" fill="none" id="DAPI-to-TMP" style="stroke:#181818;stroke-width:1;stroke-dasharray:7,7;"/><polygon fill="#181818" points="68.49,295.07,63.3604,286.6625,64.3768,292.2273,58.812,293.2437,68.49,295.07" style="stroke:#181818;stroke-width:1;"/><text fill="#000000" font-family="sans-serif" font-size="13" lengthAdjust="spacing" textLength="72.522" x="29.15" y="229.0869">write «file»</text></g><!--link DAPI to REDIS--><g class="link" data-entity-1="DAPI" data-entity-2="REDIS" data-source-line="26" data-uid="lnk17" id="link_DAPI_REDIS"><path d="M192.3394,198.8309 C192.4087,198.9394 192.4784,199.0484 192.5485,199.1581 C192.6886,199.3773 192.8302,199.5988 192.9731,199.8225 C197.5481,206.9813 203.575,216.4125 210.2575,226.87 C223.6225,247.785 236.3793,267.7491 248.6193,286.9041" fill="none" id="DAPI-to-REDIS" style="stroke:#181818;stroke-width:1;stroke-dasharray:7,7;"/><polygon fill="#181818" points="251.85,291.96,250.3745,282.2223,249.1577,287.7467,243.6333,286.5299,251.85,291.96" style="stroke:#181818;stroke-width:1;"/><text fill="#000000" font-family="sans-serif" font-size="13" lengthAdjust="spacing" textLength="118.1489" x="214.15" y="229.0869">read / write «key»</text></g><!--link DAPI to Tenant Workspace--><g class="link" data-entity-1="DAPI" data-entity-2="Tenant Workspace" data-source-line="30" data-uid="lnk18" id="link_DAPI_Tenant Workspace"><path d="M192.2554,186.2741 C196.451,186.411 202.1861,186.6045 209.248,186.8576 C223.3718,187.3639 242.8027,188.1087 265.8384,189.1167 C311.91,191.1328 372.4013,194.2019 433.695,198.5213 C556.2825,207.16 682.08,220.8 702.15,241.02 C705.2412,244.135 707.7011,247.6855 709.6371,251.5203 C710.1211,252.479 710.5724,253.4554 710.9926,254.4473 C711.2027,254.9433 711.4051,255.4431 711.5999,255.9464 C711.6973,256.1981 709.7131,273.1195 709.8067,273.3729" fill="none" id="DAPI-to-Tenant Workspace" style="stroke:#181818;stroke-width:1;stroke-dasharray:7,7;"/><polygon fill="#181818" points="711.8864,279.0009,712.5189,269.1724,710.1533,274.3109,705.0148,271.9453,711.8864,279.0009" style="stroke:#181818;stroke-width:1;"/><text fill="#000000" font-family="sans-serif" font-size="13" lengthAdjust="spacing" textLength="94.1294" x="685.15" y="229.0869">build &amp; deploy</text></g><!--SRC=[TPBVIiCm58Vl-nI7NUYL4xmK5BQbbQ5RQnFOXVCYQx9PsoObpP0XUo8VmRizcQVTpFvrWK8vt-_yKZvQPQagkU459BeejPBAKhlA9IoB_Cxphk717M3-k3TcC0dZPnhr1lu1yqgUP7mXeSEauih2H9kimg7imBS7y1OOhQnKuXru1O6F8tUVs-b5mqwD6RuqM_NXngPpdc0gqMgUBhgVbLPDR10yOMQDZ-2MptYrlvtqjqMaxo4EVEpfTX-tnVUm-ObzoZQ_Y9f9ZR0C41d91V9vcijZZbNGhDBN5oJh4pLn6BQBELGJQtqkXl3gOwQv4N2aY0J7YlQnVqkatHAJHJbLfwxOABhaYbfjv5J5KgHLaurzCgIrDnBil94pRyHv6KMrbo-JMdaepWMQjftOMvVBvAh5uY0EARsveD4rjlnYzRVDbcaku0g4B7EDxNy0]--></g></svg>